<?xml version="1.0" encoding="UTF-8"?><svg id="a" xmlns="http://www.w3.org/2000/svg" viewBox="0 0 400 414.45"><defs><style>.b{fill:#5c5091;}.b,.c{stroke-width:0px;}.c{fill:#e9e9e9;}</style></defs><path class="b" d="M350,14.45c27.58,0,50,22.42,50,50v225c0,27.58-22.42,50-50,50h-108.36l-96.64,72.5c-3.83,2.81-8.91,3.28-13.12,1.17-4.22-2.11-6.88-6.41-6.88-11.17v-62.5H50c-27.58,0-50-22.42-50-50V64.45C0,36.88,22.42,14.45,50,14.45h300Z"/><path class="c" d="M151.09,65.87c3.95,0,7.19,3.23,7.19,7.19v21.56h28.75v-21.56c0-3.95,3.23-7.19,7.19-7.19s7.19,3.23,7.19,7.19v21.56h28.75v-21.56c0-3.95,3.23-7.19,7.19-7.19s7.19,3.23,7.19,7.19v21.56h7.19c15.86,0,28.75,12.89,28.75,28.75v7.19h21.56c3.95,0,7.19,3.23,7.19,7.19s-3.23,7.19-7.19,7.19h-21.56v28.75h21.56c3.95,0,7.19,3.23,7.19,7.19s-3.23,7.19-7.19,7.19h-21.56v28.75h21.56c3.95,0,7.19,3.23,7.19,7.19s-3.23,7.19-7.19,7.19h-21.56v7.19c0,15.86-12.89,28.75-28.75,28.75h-7.19v21.56c0,3.95-3.23,7.19-7.19,7.19s-7.19-3.23-7.19-7.19v-21.56h-28.75v21.56c0,3.95-3.23,7.19-7.19,7.19s-7.19-3.23-7.19-7.19v-21.56h-28.75v21.56c0,3.95-3.23,7.19-7.19,7.19s-7.19-3.23-7.19-7.19v-21.56h-7.19c-15.86,0-28.75-12.89-28.75-28.75v-7.19h-21.56c-3.95,0-7.19-3.23-7.19-7.19s3.23-7.19,7.19-7.19h21.56v-28.75h-21.56c-3.95,0-7.19-3.23-7.19-7.19s3.23-7.19,7.19-7.19h21.56v-28.75h-21.56c-3.95,0-7.19-3.23-7.19-7.19s3.23-7.19,7.19-7.19h21.56v-7.19c0-15.86,12.89-28.75,28.75-28.75h7.19v-21.56c0-3.95,3.23-7.19,7.19-7.19ZM136.72,109c-7.95,0-14.38,6.42-14.38,14.38v115c0,7.95,6.42,14.38,14.38,14.38h115c7.95,0,14.38-6.42,14.38-14.38v-115c0-7.95-6.42-14.38-14.38-14.38h-115ZM179.26,149.25l25.16,57.5c1.57,3.64-.04,7.86-3.68,9.48s-7.86-.09-9.48-3.68l-4.45-10.11h-28.3l-4.4,10.06c-1.57,3.64-5.84,5.3-9.48,3.68s-5.3-5.84-3.68-9.48l25.16-57.5c1.12-2.61,3.73-4.31,6.6-4.31s5.44,1.71,6.6,4.31l-.04.04ZM172.65,170.05l-7.86,18.01h15.77l-7.91-18.01ZM237.34,152.12v57.5c0,3.95-3.23,7.19-7.19,7.19s-7.19-3.23-7.19-7.19v-57.5c0-3.95,3.23-7.19,7.19-7.19s7.19,3.23,7.19,7.19Z"/></svg>